<?xml version="1.0" encoding="UTF-8"?>
<svg id="Layer_1" xmlns="http://www.w3.org/2000/svg" version="1.1" viewBox="0 0 320 320">
  <!-- Generator: Adobe Illustrator 29.0.0, SVG Export Plug-In . SVG Version: 2.1.0 Build 186)  -->
  <defs>
    <style>
      .st0 {
        fill: #4c6586;
      }
    </style>
  </defs>
  <path class="st0" d="M269.8,251.8H50.2c-10.5,0-19-8.5-19-19V87.2c0-10.5,8.5-19,19-19h219.6c10.5,0,19,8.5,19,19v145.6c0,10.5-8.5,19-19,19ZM50.2,82.2c-2.8,0-5,2.2-5,5v145.6c0,2.8,2.2,5,5,5h219.6c2.8,0,5-2.2,5-5V87.2c0-2.8-2.2-5-5-5H50.2Z"/>
  <path class="st0" d="M262.6,233.1H57.4c-4.1,0-7.5-3.3-7.5-7.5v-30.5c0-4.1,3.3-7.5,7.5-7.5h205.2c4.1,0,7.5,3.3,7.5,7.5v30.5c0,4.1-3.3,7.5-7.5,7.5ZM64,219.1h192.1v-17.4H64v17.4Z"/>
</svg>