<?xml version="1.0" encoding="UTF-8"?>
<svg id="Layer_1" xmlns="http://www.w3.org/2000/svg" version="1.1" xmlns:xlink="http://www.w3.org/1999/xlink" viewBox="0 0 320 320">
  <!-- Generator: Adobe Illustrator 29.1.0, SVG Export Plug-In . SVG Version: 2.1.0 Build 142)  -->
  <defs>
    <style>
      .st0 {
        fill: none;
      }

      .st1 {
        clip-path: url(#clippath-1);
      }

      .st2 {
        fill: #1a1a18;
      }

      .st3 {
        fill: #4c6586;
      }

      .st4 {
        clip-path: url(#clippath);
      }
    </style>
    <clipPath id="clippath">
      <rect class="st0" y="1097.3" width="320" height="320"/>
    </clipPath>
    <clipPath id="clippath-1">
      <rect class="st0" x="70" y="70" width="180" height="180"/>
    </clipPath>
  </defs>
  <g class="st4">
    <path class="st3" d="M160.9,1253.9c-5-4.7-14-7-24.5-9.3,5.8-7.5,8.9-17.1,8.9-28.2,0-22.5-18.6-34.4-32-34.4s-30.6,11.5-32,31.6c-1.3,18.7,8.9,27.1,14.4,31.6.2.1.4.3.6.5-1.8,1-5.9,2.7-15.1,4.8-19.1,4.2-22.3,29.7-22.5,30.8-.4,3,1.8,5.7,4.8,6.1,3,.4,5.8-1.8,6.1-4.8,0-.2,2.4-18.8,13.9-21.3,12.6-2.8,24.9-6.3,24.9-15.8s-2.9-6.3-5.8-8.6c-4.8-3.9-11.3-9.3-10.4-22.3,1-14.4,7.9-21.4,21-21.4s21,6.9,21,23.4-2,18.8-11.3,26.3c-1.8,1.4-2.6,3.7-2.1,5.9,1,4.1,4.3,4.8,12.3,6.6,6.3,1.4,16.8,3.7,20.2,6.8,5.4,5,17.2.9,7.5-8.1M206.2,1341.2c-6,5.1-10.8,9-14.2,9.3-3.1.3-7.8-2.9-14.3-9.6-4.9-5-11.6-7.4-19.9-7.2-25.2.7-59.1,25.9-64.5,32-2.7,3.1-2.4,7.8.7,10.6,1.4,1.3,3.2,1.9,5,1.9s4.2-.9,5.6-2.5c4.6-5.2,34.8-26.4,53.6-26.9,4-.1,6.9.8,8.8,2.7,7.6,7.7,16,14.8,26.2,14,7.9-.6,14.1-5.5,22.8-12.8,3.2-2.7,3.5-7.4.8-10.6-2.7-3.2-7.4-3.5-10.6-.8M207.5,1283.8l-12.2-2.6,3.2,16.1,4.7,23.9c1.1,5.4,4.5,6.2,7.7,1.6l17.7-25.1s0,0,0,0l5.8-8.2-9.8-2.1s0,0,0,0l-17.1-3.6ZM263.5,1152.6l-39.1-8.3-27,127.2,39.1,8.3,27-127.2Z"/>
  </g>
  <g class="st1">
    <path class="st2" d="M85,85h50v-15h-55c-5.5,0-10,4.5-10,10v55h15v-50ZM80,250h55v-15h-50v-50h-15v55c0,5.5,4.5,10,10,10M167.5,167.5h30v-15h-30v-30h-15v30h-30v15h30v30h15v-30ZM235,135h15v-55c0-5.5-4.5-10-10-10h-55v15h50v50ZM250,240v-55h-15v50h-50v15h55c5.5,0,10-4.5,10-10"/>
  </g>
  <polyline class="st0" points="320 0 0 0 0 320"/>
</svg>