<?xml version="1.0" encoding="UTF-8"?>
<svg xmlns="http://www.w3.org/2000/svg" version="1.1" xmlns:xlink="http://www.w3.org/1999/xlink" viewBox="0 0 320 320">
  <defs>
    <style>
      .cls-1 {
        fill: #2c2c2c;
      }

      .cls-2 {
        fill: none;
      }

      .cls-3 {
        clip-path: url(#clippath);
      }
    </style>
    <clipPath id="clippath">
      <rect class="cls-2" width="320" height="320"/>
    </clipPath>
  </defs>
  <!-- Generator: Adobe Illustrator 28.7.1, SVG Export Plug-In . SVG Version: 1.2.0 Build 142)  -->
  <g>
    <g id="Layer_1">
      <g class="cls-3">
        <path class="cls-1" d="M250,245c0,2.8-2.2,5-5,5H75c-2.8,0-5-2.2-5-5v-95h15v85h150v-85h15v95ZM210,140l-50,40-50-40h30v-60h40v60h30ZM320,270V50c0-27.6-22.4-50-50-50H50C22.4,0,0,22.4,0,50v220c0,27.6,22.4,50,50,50h220c27.6,0,50-22.4,50-50"/>
      </g>
    </g>
  </g>
</svg>