<?xml version="1.0" encoding="UTF-8"?>
<svg xmlns="http://www.w3.org/2000/svg" version="1.1" xmlns:xlink="http://www.w3.org/1999/xlink" viewBox="0 0 320 320">
  <defs>
    <style>
      .cls-1 {
        fill: #2c2c2c;
      }

      .cls-2 {
        fill: none;
      }

      .cls-3 {
        clip-path: url(#clippath);
      }
    </style>
    <clipPath id="clippath">
      <rect class="cls-2" width="320" height="320"/>
    </clipPath>
  </defs>
  <!-- Generator: Adobe Illustrator 28.7.1, SVG Export Plug-In . SVG Version: 1.2.0 Build 142)  -->
  <g>
    <g id="Layer_1">
      <g class="cls-3">
        <path class="cls-1" d="M280,270c0,5.5-4.5,10-10,10h-55v-15h50v-50h15v55ZM280,105h-15v-50h-50v-15h55c5.5,0,10,4.5,10,10v55ZM224,169.9c0,9.7-2.4,18.1-7.1,25,8.5,2,16.4,4.2,21,8.5,9.3,8.7,10.2,24.7,10.3,26.5,0,1.8-.5,3.4-1.7,4.7-1.2,1.3-2.8,2-4.6,2.1h-.3c-3.5,0-6.4-2.8-6.6-6.3-.1-3.2-1.6-13.1-6.1-17.4-2.8-2.6-12.6-4.8-17.9-5.9-7.6-1.7-11.4-2.5-12.5-7.2-.6-2.6.3-5.2,2.5-6.9,8.1-6.5,9.8-16.1,9.8-23,0-14.2-11.6-20-17.8-20-11.3,0-16.9,5.8-17.8,18.3-.8,11.2,4.6,15.6,9,19.2,2.8,2.2,5.9,4.8,5.9,9.1,0,9.9-11.9,13.3-24.1,16-9.5,2.1-11.6,18.2-11.6,18.3-.2,1.8-1.1,3.3-2.5,4.4-1.4,1.1-3.1,1.6-4.8,1.3-3.6-.4-6.2-3.7-5.7-7.3.1-1,3.2-25.5,21.8-29.6,5.9-1.3,9.4-2.4,11.4-3.2-5.4-4.6-13.6-12.7-12.5-29.2,1.4-19.4,12.6-30.5,30.9-30.5s30.9,11.5,30.9,33.1M162.1,146.4l-.9,1.3c-1.9,2.7-3.2,5.6-4,8.8l-.5,2-1.8-1.2c-3.5-2.4-12.1-4.2-17.1-5.4-7.6-1.7-11.4-2.5-12.5-7.2-.6-2.6.3-5.2,2.5-6.9,8.1-6.5,9.8-16.1,9.8-23,0-14.1-11.6-20-17.8-20-11.3,0-16.9,5.8-17.8,18.3-.8,11.2,4.6,15.6,9,19.2,2.8,2.2,5.9,4.8,5.9,9.1,0,9.9-11.9,13.3-24.1,16-9.5,2.1-11.6,18.2-11.6,18.3-.3,2.8-2.4,5.1-5.2,5.6h-.1s-2.4,0-2.4,0c-3.3-.7-5.7-3.8-5.3-7.2.1-1,3.2-25.5,21.8-29.6,5.9-1.3,9.4-2.4,11.4-3.2-5.4-4.6-13.7-12.7-12.5-29.2,1.4-19.3,12.6-30.5,30.9-30.5,13,0,30.9,11.5,30.9,33.1s-2.4,18.1-7.1,25c6.3,1.4,12.5,3.1,17.1,5.7l1.4.8ZM105,55h-50v50h-15v-55c0-5.5,4.5-10,10-10h55v15ZM40,215h15v50h50v15h-55c-5.5,0-10-4.5-10-10v-55ZM320,270V50c0-27.6-22.4-50-50-50H50C22.4,0,0,22.4,0,50v220c0,27.6,22.4,50,50,50h220c27.6,0,50-22.4,50-50"/>
      </g>
    </g>
  </g>
</svg>