<?xml version="1.0" encoding="UTF-8"?>
<svg xmlns="http://www.w3.org/2000/svg" version="1.1" xmlns:xlink="http://www.w3.org/1999/xlink" viewBox="0 0 320 320">
  <defs>
    <style>
      .cls-1 {
        fill: #2c2c2c;
      }

      .cls-2 {
        fill: none;
      }

      .cls-3 {
        clip-path: url(#clippath);
      }
    </style>
    <clipPath id="clippath">
      <rect class="cls-2" width="320" height="320"/>
    </clipPath>
  </defs>
  <!-- Generator: Adobe Illustrator 28.7.1, SVG Export Plug-In . SVG Version: 1.2.0 Build 142)  -->
  <g>
    <g id="Layer_1">
      <g class="cls-3">
        <path class="cls-1" d="M177.8,236.2h-35.6v-103.2h35.6v103.2ZM177.8,116.1h-35.6v-26.1h35.6v26.1ZM285,160c0-69-56-125-125-125s-125,56-125,125c0,69,56,125,125,125s125-56,125-125M300,160c0,77.3-62.7,140-140,140-77.3,0-140-62.7-140-140,0-77.3,62.7-140,140-140,77.3,0,140,62.7,140,140M320,270V50c0-27.6-22.4-50-50-50H50C22.4,0,0,22.4,0,50v220c0,27.6,22.4,50,50,50h220c27.6,0,50-22.4,50-50"/>
      </g>
    </g>
  </g>
</svg>