<?xml version="1.0" encoding="UTF-8"?>
<svg id="Layer_1" xmlns="http://www.w3.org/2000/svg" version="1.1" xmlns:xlink="http://www.w3.org/1999/xlink" viewBox="0 0 320 320">
  <!-- Generator: Adobe Illustrator 29.1.0, SVG Export Plug-In . SVG Version: 2.1.0 Build 142)  -->
  <defs>
    <style>
      .st0 {
        fill: none;
      }

      .st1 {
        fill: #2b2b2b;
      }

      .st2 {
        clip-path: url(#clippath);
      }
    </style>
    <clipPath id="clippath">
      <rect class="st0" width="320" height="320"/>
    </clipPath>
  </defs>
  <g class="st2">
    <path class="st1" d="M242.5,196h-30v-30h30v30ZM242.5,151h-30v-30h30v30ZM197.5,241h-30v-30h30v30ZM197.5,196h-30v-30h30v30ZM197.5,151h-30v-30h30v30ZM152.5,241h-30v-30h30v30ZM152.5,196h-30v-30h30v30ZM152.5,151h-30v-30h30v30ZM107.5,241h-30v-30h30v30ZM107.5,196h-30v-30h30v30ZM107.5,151h-30v-30h30v30ZM222.5,221l35-5v-110H62.5v150h155l5-35ZM272.5,226l-45,45H47.5V61c0-2.8,2.2-5,5-5h32.5v20.7c0,7.9,6.7,14.3,15,14.3s15-6.4,15-14.3v-20.7h88v20.7c0,7.9,6.7,14.3,15,14.3s15-6.4,15-14.3v-20.7h34.5c2.8,0,5,2.2,5,5v165ZM227,76.7c0,4.6-4,8.3-9,8.3s-9-3.7-9-8.3v-36.4c0-4.6,4-8.3,9-8.3s9,3.7,9,8.3v36.4ZM109,76.7c0,4.6-4,8.3-9,8.3s-9-3.7-9-8.3v-36.4c0-4.6,4-8.3,9-8.3s9,3.7,9,8.3v36.4ZM320,270V50c0-27.6-22.4-50-50-50H50C22.4,0,0,22.4,0,50v220c0,27.6,22.4,50,50,50h220c27.6,0,50-22.4,50-50"/>
  </g>
</svg>