<?xml version="1.0" encoding="UTF-8"?>
<svg id="Layer_1" xmlns="http://www.w3.org/2000/svg" version="1.1" viewBox="0 0 320 320">
  <!-- Generator: Adobe Illustrator 29.1.0, SVG Export Plug-In . SVG Version: 2.1.0 Build 142)  -->
  <defs>
    <style>
      .st0 {
        fill: #4c6586;
      }
    </style>
  </defs>
  <path class="st0" d="M238.8,256.9c-10.4,8.4-21.9,15.1-34.3,19.9l5.4,14c13.9-5.3,26.8-12.8,38.4-22.2l-9.5-11.6ZM149.9,235.9l95.4-127.8-31.9-24.1-70,92.9-41.9-37.7-26.8,29.7,74.3,66.9h0s0,0,0,0h.9ZM140.2,283.4l-2.4,14.8c7.3,1.2,14.8,1.8,22.2,1.8s14.9-.6,22.2-1.8l-2.4-14.8c-13,2.1-26.6,2.1-39.6,0M43.2,204.5l-14,5.4c5.3,13.9,12.8,26.8,22.2,38.4l11.6-9.5c-8.4-10.4-15.1-21.9-19.9-34.3M36.6,140.2l-14.8-2.4c-1.2,7.3-1.8,14.8-1.8,22.2s.6,14.9,1.8,22.2l14.8-2.4c-1-6.5-1.6-13.2-1.6-19.8s.5-13.3,1.6-19.8M43.2,115.5c4.7-12.4,11.4-23.9,19.9-34.3l-11.6-9.5c-9.4,11.6-16.9,24.5-22.2,38.4l14,5.4ZM81.2,256.9l-9.5,11.6c11.6,9.4,24.5,16.9,38.4,22.2l5.4-14c-12.4-4.7-23.9-11.4-34.3-19.9M81.2,63.1c10.4-8.4,21.9-15.1,34.3-19.9l-5.4-14c-13.9,5.3-26.8,12.8-38.4,22.2l9.5,11.6ZM179.8,36.6l2.4-14.8c-14.6-2.3-29.8-2.3-44.4,0l2.4,14.8c13-2.1,26.6-2.1,39.6,0M238.8,63.1l9.5-11.6c-11.6-9.4-24.5-16.9-38.4-22.2l-5.4,14c12.4,4.7,23.9,11.4,34.3,19.9M276.8,204.5c-4.7,12.4-11.4,23.9-19.9,34.3l11.6,9.5c9.4-11.6,16.9-24.5,22.2-38.4l-14-5.4ZM276.8,115.5l14-5.4c-5.3-13.9-12.8-26.8-22.2-38.4l-11.6,9.5c8.4,10.4,15.1,21.9,19.9,34.3M300,160c0-7.4-.6-14.9-1.8-22.2l-14.8,2.4c1,6.5,1.6,13.2,1.6,19.8s-.5,13.3-1.6,19.8l14.8,2.4c1.2-7.3,1.8-14.8,1.8-22.2"/>
</svg>