<?xml version="1.0" encoding="UTF-8"?>
<svg id="Layer_1" xmlns="http://www.w3.org/2000/svg" version="1.1" xmlns:xlink="http://www.w3.org/1999/xlink" viewBox="0 0 320 320">
  <!-- Generator: Adobe Illustrator 29.1.0, SVG Export Plug-In . SVG Version: 2.1.0 Build 142)  -->
  <defs>
    <style>
      .st0 {
        fill: none;
      }

      .st1 {
        fill: #4c6586;
      }

      .st2 {
        clip-path: url(#clippath);
      }
    </style>
    <clipPath id="clippath">
      <rect class="st0" width="320" height="320"/>
    </clipPath>
  </defs>
  <g class="st2">
    <path class="st1" d="M70.3,110.6c-6.9,1.6-11.4,7.9-10,14,1.4,6.1,8.2,9.8,15.1,8.2,6.9-1.6,16.6-9,15.2-15.2-1.4-6.1-13.4-8.6-20.3-7M105.5,84.5c-1.6-6.9-7.9-11.4-14-10-6.1,1.4-9.8,8.2-8.2,15.1,1.6,7,9.1,16.6,15.2,15.2,6.1-1.4,8.6-13.3,7-20.3M108.3,113.5c-.9-4.1-5-6.6-9.1-5.7-4.1,1-6.6,5-5.7,9.1.9,4.1,5,6.6,9.1,5.7,4.1-.9,6.6-5,5.7-9.1M103.3,125.5c-6.1,1.4-8.6,13.4-7,20.3,1.6,6.9,7.9,11.4,14,10,6.1-1.4,9.8-8.2,8.2-15.1-1.6-7-9.1-16.6-15.2-15.2M126.4,97.6c-6.9,1.6-16.6,9-15.2,15.2,1.4,6.1,13.4,8.6,20.3,7,6.9-1.6,11.4-7.8,10-14-1.4-6.1-8.2-9.8-15.1-8.2M244.9,176.4c.5,1,.9,2.4.4,3.9-1.1,3.2-5.8,4.6-10.2,3.1-5.9-2-12-8.1-13.8-11.3,3.4-1.5,11.9-2.5,17.8-.5,2.6.9,4.8,2.7,5.8,4.8M237.6,147c-5.6,2.8-14.2,2.8-17.7,1.7,1.4-3.4,6.7-10.2,12.3-12.9,4.2-2.1,9.1-1.3,10.6,1.8,1.5,3-.9,7.3-5.1,9.4M218.7,201.8c2.1,4.2,1.3,9.1-1.8,10.5-3,1.5-7.3-.9-9.4-5.1-2.7-5.6-2.8-14.2-1.7-17.7,3.4,1.4,10.2,6.7,12.9,12.3M203.3,184.4c-12.3,6-27.2.9-33.2-11.5-6-12.3-.9-27.2,11.4-33.2,12.3-6,27.2-.9,33.2,11.4,6,12.3.9,27.2-11.4,33.2M201.9,115.4c.8-2.3,2.3-4.3,4.2-5.5.7-.4,1.8-1,3.1-.9.4,0,.9,0,1.4.2,3.2,1.1,4.6,5.8,3,10.2-2,5.9-8.1,12-11.3,13.8-1.5-3.4-2.5-11.9-.4-17.8M214.6,97.4c-4.8-1.6-10.2-.9-14.9,1.9-4.4,2.7-7.8,6.9-9.5,12.1-.3.8-.5,1.6-.7,2.4-.3-.8-.6-1.6-1-2.3-4.6-9.5-14.6-14.3-23.4-11.8-1.3-10.3,3.9-20.7,13.7-25.4,12.3-6,27.2-.9,33.2,11.4,1.8,3.8,2.6,7.8,2.5,11.8M163.6,152.1c-3.4,1.5-11.9,2.5-17.8.4-2.3-.8-4.3-2.3-5.5-4.2-.5-.9-1.3-2.7-.7-4.5.8-2.3,3.5-3.7,6.6-3.7,1.2,0,2.4.2,3.7.6,5.9,2,12,8.1,13.8,11.3M167.9,111.8c.6-.3,1.3-.5,2-.5,2.7,0,5.8,2.2,7.4,5.5,2.7,5.6,2.8,14.2,1.7,17.7-3.4-1.4-10.2-6.7-12.9-12.3-2.1-4.2-1.3-9.1,1.8-10.5M147.3,177.2c3.5-1.7,8.2-2.4,12-2.4s4.4.2,5.7.6c-1.4,3.5-6.7,10.2-12.3,12.9-4.2,2.1-9.1,1.3-10.6-1.8-1.5-3,.9-7.3,5.1-9.4M171.2,204.7c2-5.9,8.1-12,11.3-13.8,1.5,3.4,2.5,11.9.4,17.8-.8,2.4-2.3,4.3-4.2,5.5-.9.5-2.7,1.3-4.5.7-3.2-1.1-4.6-5.8-3.1-10.3M243.2,159.8c-.8-.3-1.6-.5-2.4-.7.8-.3,1.6-.6,2.3-1,10.5-5.1,15.3-16.8,10.8-26-1.1-2.3-2.8-4.3-4.7-5.8,2.4-2,4.2-4.5,5.2-7.5,1.7-4.8,1-10.3-1.8-15-2.7-4.4-6.9-7.8-12.1-9.5-.7-.2-1.5-.5-2.4-.7,0,0,.2,0,.3,0h.3c.5-.4,1.1-.6,1.7-.9,5.1-2.5,9.1-6.6,11.1-11.5,2.1-4.9,2-10.1-.2-14.6-4.5-9.2-16.6-12.6-27.1-7.5-.9.4-1.6.8-2.1,1.1,0,0-.1.2-.2.2,0,0,0-.1,0-.2.3-.8.6-1.5.8-2.2,1.8-5.4,1.7-11-.3-15.9-2-4.9-5.7-8.5-10.4-10.2-4.7-1.6-9.9-1.1-14.5,1.5-4.6,2.6-8.2,7-10,12.3-.2.7-.4,1.3-.5,1.8v.5c-.1,0-.2.1-.2.2-.2-.7-.5-1.4-.7-1.8l-.2-.3c0,0,0-.2-.1-.2-5.1-10.4-16.8-15.2-26-10.8-4.5,2.2-7.7,6.2-9.1,11.3-1.4,5.1-.8,10.7,1.6,15.8.4.8.8,1.5,1.2,2.2-.9-.4-1.6-.7-2.3-.9-5.1-1.8-10.6-1.7-15.4,0-5.1,1.9-9,5.8-10.7,10.7-1.6,4.6-1.1,9.6,1.4,14.2,12.2-2.8,24.2,3.7,26.7,14.5,2.5,10.8-5.4,21.9-17.7,24.8-3.9.9-8.6,1-13.4.5,2.6,4.1,4.5,8.4,5.4,12.3,2.8,12.3-3.7,24.3-14.5,26.8-6.4,1.5-12.8-.7-17.6-5.1,9.7,33.8,26.2,77.9,26.2,77.9-38.5,25.7-33.6,25.1-33.6,25.1,0,0,17.2,47.4,67,24.4l-8.7-41.5s18-10.8,37.6-22.7c.4-.2.9-.4,1.3-.7.6-.4,1.2-.8,1.7-1.2,4-2.4,7.9-4.8,11.8-7.2,4.1,5.5,10.3,8.7,16.4,8.7,2.5,0,5-.5,7.3-1.7,9.2-4.5,12.6-16.7,7.5-27.2-.4-.7-.8-1.5-1.2-2.2.8.4,1.6.7,2.4.9,2.5.9,5.1,1.3,7.6,1.3,8.3,0,15.8-4.6,18.4-12,1.5-4.3,1.1-9.1-1-13.4-2.5-5.1-7.2-9.2-12.9-11.1"/>
  </g>
</svg>